<svg width="810.896" height="522.41899" xmlns="http://www.w3.org/2000/svg">

 <g>
  <title>Layer 1</title>
  <rect fill="#fff" height="293.36099" width="434.83701" y="113.059" x="188" id="b235f806-e2c9-45ef-b703-f7f371930907"/>
  <path fill="#3f3d56" d="m623.918,408.41904l-437.836,0l0,-296.36l437.836,0l0,296.36zm-434.837,-3l431.838,0l0,-290.361l-431.838,0l0,290.361z" id="e6118afa-4c53-4ea0-93af-402108239327"/>
  <path fill="#e5e5e5" d="m225,381.936l361.343,0l0,-244.877l-361.343,0l0,244.877z" id="b8219341-780b-4b9f-9d82-e7d3fa088cf7"/>
  <g id="b57d6a17-8879-4c63-8b1e-809c4937ad7c">
   <circle fill="#3f3d56" r="37.928" cy="265.057" cx="327.64301" id="f626c2c6-7cdb-4d92-a189-e8377e4d5dd9"/>
   <path fill="#6c63ff" d="m446.579,381.94003l-186.061,0a3.79889,3.79889 0 0 1 -0.7,-0.055l88,-152.425a6.161,6.161 0 0 1 10.725,0l59.06207,102.28l2.829,4.895l26.14493,45.305z" id="aef23fce-a5bc-48f3-9270-c0a812cf70d7"/>
   <path opacity="0.2" d="m446.58,381.93601l-63.527,0l31.185,-45.3l2.246,-3.263l1.123,-1.632l2.828,4.895l26.145,45.3z" id="f49f870d-1e60-4ae8-9c2e-844cb844297a"/>
   <path fill="#6c63ff" d="m550.177,381.93598l-160.928,0l31.185,-45.3l2.244,-3.263l40.636,-59.03a8.22292,8.22292 0 0 1 12.206,-0.73a7.34064,7.34064 0 0 1 0.585,0.73l74.072,107.593z" id="f26d8b81-72d3-442f-931c-1cf77feee227"/>
  </g>
  <path fill="#e6e6e6" d="m809.896,522.41801l-743,0a1,1 0 0 1 0,-2l743,0a1,1 0 0 1 0,2z" id="b7aca4fe-24cd-43d3-85a6-0827311119f8"/>
 </g>
</svg>